<svg 
 xmlns="http://www.w3.org/2000/svg"
 xmlns:xlink="http://www.w3.org/1999/xlink"
 width="201.5px" height="144.5px">
<path fill-rule="evenodd"  stroke="rgb(29, 83, 118)" stroke-width="1px" stroke-linecap="butt" stroke-linejoin="miter" fill="none"
 d="M14.323,46.678 L156.323,46.678 L169.323,87.678 L26.323,87.678 L14.323,46.678 Z"/>
<path fill-rule="evenodd"  fill="rgb(20, 71, 104)"
 d="M17.323,49.678 L153.323,49.678 L166.323,84.678 L29.323,84.678 L17.323,49.678 Z"/>
<path fill-rule="evenodd"  fill-opacity="0.078" fill="rgb(255, 255, 255)"
 d="M100.813,68.687 C150.794,68.687 191.312,85.477 191.312,106.188 C191.312,126.898 150.794,143.688 100.813,143.688 C50.831,143.688 10.313,126.898 10.313,106.188 C10.313,85.477 50.831,68.687 100.813,68.687 Z"/>
<path fill-rule="evenodd"  fill-opacity="0.078" fill="rgb(255, 255, 255)"
 d="M109.813,0.687 C159.794,0.687 200.312,17.477 200.312,38.188 C200.312,58.898 159.794,75.688 109.813,75.688 C59.831,75.688 19.313,58.898 19.313,38.188 C19.313,17.477 59.831,0.687 109.813,0.687 Z"/>
</svg>
